<?xml version="1.0" ?><svg data-name="Layer 1" id="Layer_1" viewBox="0 0 64 64" xmlns="http://www.w3.org/2000/svg"><title/><rect height="28" style="fill:none;stroke:#000;stroke-miterlimit:10" width="1" x="24.5" y="26.5"/><rect height="28" style="fill:none;stroke:#000;stroke-miterlimit:10" width="1" x="44.5" y="26.5"/><rect height="28" style="fill:none;stroke:#000;stroke-miterlimit:10" width="1" x="18.5" y="26.5"/><rect height="28" style="fill:none;stroke:#000;stroke-miterlimit:10" width="1" x="31.5" y="26.5"/><rect height="28" style="fill:none;stroke:#000;stroke-miterlimit:10" width="1" x="38.5" y="26.5"/><path d="M13,52a2,2,0,0,0,2,2H49a2,2,0,0,0,2-2l2-25H11Z" style="fill:none;stroke:#000;stroke-miterlimit:10;stroke-width:2px"/><path d="M53,18H11a1.171,1.171,0,0,0-1,1.286v6.428A1.171,1.171,0,0,0,11,27H53a1.171,1.171,0,0,0,1-1.286V19.286A1.171,1.171,0,0,0,53,18Z" style="fill:none;stroke:#000;stroke-miterlimit:10;stroke-width:2px"/><circle cx="17.5" cy="22.5" r="1.5" style="fill:none;stroke:#000;stroke-miterlimit:10;stroke-width:2px"/><circle cx="46.5" cy="22.5" r="1.5" style="fill:none;stroke:#000;stroke-miterlimit:10;stroke-width:2px"/><path d="M19,21l9.76-10.736L29,10" style="fill:#fff;stroke:#000;stroke-linecap:round;stroke-miterlimit:10;stroke-width:2px"/><path d="M45,21,35.24,10.264,35,10" style="fill:#fff;stroke:#000;stroke-linecap:round;stroke-miterlimit:10;stroke-width:2px"/></svg>